<?xml version="1.0" encoding="UTF-8"?>
<svg xmlns="http://www.w3.org/2000/svg"
     xmlns:xlink="http://www.w3.org/1999/xlink"
     version="1.2"
     width="141.42mm" height="100mm" viewBox="0 0 141.42 100"
     stroke="none"
     fill="#000000"
     stroke-width="0.3"
     font-size="3.88"
>
<defs>
  <marker id="arrow" markerWidth="15" markerHeight="7" refX="5" refY="3.5" orient="auto" markerUnits="strokeWidth">
    <path d="M0,0 L15,3.5 L0,7 z" stroke="context-stroke" fill="context-stroke"/>
  </marker>
</defs>
<g stroke="#808080" stroke-width="1" id="img-f94d333f-1">
  <g transform="translate(70.71,50)">
    <path d="M-50,-50 L50,-50 50,50 -50,50  z" class="primitive"/>
  </g>
</g>
<g stroke-width="0.5" id="img-f94d333f-2">
  <g stroke="#808080" fill="#3D9E4D" id="img-f94d333f-3">
    <g transform="translate(115.71,5)">
      <path d="M-5,-5 L5,-5 5,5 -5,5  z" class="primitive"/>
    </g>
    <g stroke="#000000" id="img-f94d333f-4">
      <g transform="translate(115.71,5)">
        <g class="primitive">
          <text text-anchor="middle" dy="0.35em">←</text>
        </g>
      </g>
    </g>
  </g>
  <g stroke="#808080" fill="#3D9F4D" id="img-f94d333f-5">
    <g transform="translate(115.71,15)">
      <path d="M-5,-5 L5,-5 5,5 -5,5  z" class="primitive"/>
    </g>
    <g stroke="#000000" id="img-f94d333f-6">
      <g transform="translate(115.71,15)">
        <g class="primitive">
          <text text-anchor="middle" dy="0.35em">←</text>
        </g>
      </g>
    </g>
  </g>
  <g stroke="#808080" fill="#3E9F4E" id="img-f94d333f-7">
    <g transform="translate(115.71,25)">
      <path d="M-5,-5 L5,-5 5,5 -5,5  z" class="primitive"/>
    </g>
    <g stroke="#000000" id="img-f94d333f-8">
      <g transform="translate(115.71,25)">
        <g class="primitive">
          <text text-anchor="middle" dy="0.35em">←</text>
        </g>
      </g>
    </g>
  </g>
  <g stroke="#808080" fill="#40A050" id="img-f94d333f-9">
    <g transform="translate(115.71,35)">
      <path d="M-5,-5 L5,-5 5,5 -5,5  z" class="primitive"/>
    </g>
    <g stroke="#000000" id="img-f94d333f-10">
      <g transform="translate(115.71,35)">
        <g class="primitive">
          <text text-anchor="middle" dy="0.35em">↑</text>
        </g>
      </g>
    </g>
  </g>
  <g stroke="#808080" fill="#45A354" id="img-f94d333f-11">
    <g transform="translate(115.71,45)">
      <path d="M-5,-5 L5,-5 5,5 -5,5  z" class="primitive"/>
    </g>
    <g stroke="#000000" id="img-f94d333f-12">
      <g transform="translate(115.71,45)">
        <g class="primitive">
          <text text-anchor="middle" dy="0.35em">↑</text>
        </g>
      </g>
    </g>
  </g>
  <g stroke="#808080" fill="#54AA61" id="img-f94d333f-13">
    <g transform="translate(115.71,55)">
      <path d="M-5,-5 L5,-5 5,5 -5,5  z" class="primitive"/>
    </g>
    <g stroke="#000000" id="img-f94d333f-14">
      <g transform="translate(115.71,55)">
        <g class="primitive">
          <text text-anchor="middle" dy="0.35em">↑</text>
        </g>
      </g>
    </g>
  </g>
  <g stroke="#808080" fill="#75BA80" id="img-f94d333f-15">
    <g transform="translate(115.71,65)">
      <path d="M-5,-5 L5,-5 5,5 -5,5  z" class="primitive"/>
    </g>
    <g stroke="#000000" id="img-f94d333f-16">
      <g transform="translate(115.71,65)">
        <g class="primitive">
          <text text-anchor="middle" dy="0.35em">↑</text>
        </g>
      </g>
    </g>
  </g>
  <g stroke="#808080" fill="#A2D1AA" id="img-f94d333f-17">
    <g transform="translate(115.71,75)">
      <path d="M-5,-5 L5,-5 5,5 -5,5  z" class="primitive"/>
    </g>
    <g stroke="#000000" id="img-f94d333f-18">
      <g transform="translate(115.71,75)">
        <g class="primitive">
          <text text-anchor="middle" dy="0.35em">↓</text>
        </g>
      </g>
    </g>
  </g>
  <g stroke="#808080" fill="#3B9D4B" id="img-f94d333f-19">
    <g transform="translate(115.71,85)">
      <path d="M-5,-5 L5,-5 5,5 -5,5  z" class="primitive"/>
    </g>
    <g stroke="#000000" id="img-f94d333f-20">
      <g transform="translate(115.71,85)">
        <g class="primitive">
          <text text-anchor="middle" dy="0.35em">↓</text>
        </g>
      </g>
    </g>
  </g>
  <g stroke="#808080" fill="#008015" id="img-f94d333f-21">
    <g transform="translate(115.71,95)">
      <path d="M-5,-5 L5,-5 5,5 -5,5  z" class="primitive"/>
    </g>
    <g stroke="#000000" id="img-f94d333f-22">
      <g transform="translate(115.71,95)">
        <g class="primitive">
          <text text-anchor="middle" dy="0.35em">↑</text>
        </g>
      </g>
    </g>
  </g>
  <g stroke="#808080" fill="#3C9E4C" id="img-f94d333f-23">
    <g transform="translate(105.71,5)">
      <path d="M-5,-5 L5,-5 5,5 -5,5  z" class="primitive"/>
    </g>
    <g stroke="#000000" id="img-f94d333f-24">
      <g transform="translate(105.71,5)">
        <g class="primitive">
          <text text-anchor="middle" dy="0.35em">←</text>
        </g>
      </g>
    </g>
  </g>
  <g stroke="#808080" fill="#3D9E4C" id="img-f94d333f-25">
    <g transform="translate(105.71,15)">
      <path d="M-5,-5 L5,-5 5,5 -5,5  z" class="primitive"/>
    </g>
    <g stroke="#000000" id="img-f94d333f-26">
      <g transform="translate(105.71,15)">
        <g class="primitive">
          <text text-anchor="middle" dy="0.35em">←</text>
        </g>
      </g>
    </g>
  </g>
  <g stroke="#808080" fill="#3D9F4D" id="img-f94d333f-27">
    <g transform="translate(105.71,25)">
      <path d="M-5,-5 L5,-5 5,5 -5,5  z" class="primitive"/>
    </g>
    <g stroke="#000000" id="img-f94d333f-28">
      <g transform="translate(105.71,25)">
        <g class="primitive">
          <text text-anchor="middle" dy="0.35em">←</text>
        </g>
      </g>
    </g>
  </g>
  <g stroke="#808080" fill="#3FA04F" id="img-f94d333f-29">
    <g transform="translate(105.71,35)">
      <path d="M-5,-5 L5,-5 5,5 -5,5  z" class="primitive"/>
    </g>
    <g stroke="#000000" id="img-f94d333f-30">
      <g transform="translate(105.71,35)">
        <g class="primitive">
          <text text-anchor="middle" dy="0.35em">←</text>
        </g>
      </g>
    </g>
  </g>
  <g stroke="#808080" fill="#45A354" id="img-f94d333f-31">
    <g transform="translate(105.71,45)">
      <path d="M-5,-5 L5,-5 5,5 -5,5  z" class="primitive"/>
    </g>
    <g stroke="#000000" id="img-f94d333f-32">
      <g transform="translate(105.71,45)">
        <g class="primitive">
          <text text-anchor="middle" dy="0.35em">↑</text>
        </g>
      </g>
    </g>
  </g>
  <g stroke="#808080" fill="#5AAD67" id="img-f94d333f-33">
    <g transform="translate(105.71,55)">
      <path d="M-5,-5 L5,-5 5,5 -5,5  z" class="primitive"/>
    </g>
    <g stroke="#000000" id="img-f94d333f-34">
      <g transform="translate(105.71,55)">
        <g class="primitive">
          <text text-anchor="middle" dy="0.35em">↑</text>
        </g>
      </g>
    </g>
  </g>
  <g stroke="#808080" fill="#A7D3AE" id="img-f94d333f-35">
    <g transform="translate(105.71,65)">
      <path d="M-5,-5 L5,-5 5,5 -5,5  z" class="primitive"/>
    </g>
    <g stroke="#000000" id="img-f94d333f-36">
      <g transform="translate(105.71,65)">
        <g class="primitive">
          <text text-anchor="middle" dy="0.35em">↑</text>
        </g>
      </g>
    </g>
  </g>
  <g stroke="#808080" fill="#FF0000" id="img-f94d333f-37">
    <g transform="translate(105.71,75)">
      <path d="M-5,-5 L5,-5 5,5 -5,5  z" class="primitive"/>
    </g>
    <g stroke="#000000" id="img-f94d333f-38">
      <g transform="translate(105.71,75)">
        <g class="primitive">
          <text text-anchor="middle" dy="0.35em">↑</text>
        </g>
      </g>
    </g>
  </g>
  <g stroke="#808080" fill="#81C08B" id="img-f94d333f-39">
    <g transform="translate(105.71,85)">
      <path d="M-5,-5 L5,-5 5,5 -5,5  z" class="primitive"/>
    </g>
    <g stroke="#000000" id="img-f94d333f-40">
      <g transform="translate(105.71,85)">
        <g class="primitive">
          <text text-anchor="middle" dy="0.35em">↓</text>
        </g>
      </g>
    </g>
  </g>
  <g stroke="#808080" fill="#239235" id="img-f94d333f-41">
    <g transform="translate(105.71,95)">
      <path d="M-5,-5 L5,-5 5,5 -5,5  z" class="primitive"/>
    </g>
    <g stroke="#000000" id="img-f94d333f-42">
      <g transform="translate(105.71,95)">
        <g class="primitive">
          <text text-anchor="middle" dy="0.35em">→</text>
        </g>
      </g>
    </g>
  </g>
  <g stroke="#808080" fill="#3C9E4C" id="img-f94d333f-43">
    <g transform="translate(95.71,5)">
      <path d="M-5,-5 L5,-5 5,5 -5,5  z" class="primitive"/>
    </g>
    <g stroke="#000000" id="img-f94d333f-44">
      <g transform="translate(95.71,5)">
        <g class="primitive">
          <text text-anchor="middle" dy="0.35em">←</text>
        </g>
      </g>
    </g>
  </g>
  <g stroke="#808080" fill="#3C9E4C" id="img-f94d333f-45">
    <g transform="translate(95.71,15)">
      <path d="M-5,-5 L5,-5 5,5 -5,5  z" class="primitive"/>
    </g>
    <g stroke="#000000" id="img-f94d333f-46">
      <g transform="translate(95.71,15)">
        <g class="primitive">
          <text text-anchor="middle" dy="0.35em">←</text>
        </g>
      </g>
    </g>
  </g>
  <g stroke="#808080" fill="#3C9E4C" id="img-f94d333f-47">
    <g transform="translate(95.71,25)">
      <path d="M-5,-5 L5,-5 5,5 -5,5  z" class="primitive"/>
    </g>
    <g stroke="#000000" id="img-f94d333f-48">
      <g transform="translate(95.71,25)">
        <g class="primitive">
          <text text-anchor="middle" dy="0.35em">←</text>
        </g>
      </g>
    </g>
  </g>
  <g stroke="#808080" fill="#3D9F4D" id="img-f94d333f-49">
    <g transform="translate(95.71,35)">
      <path d="M-5,-5 L5,-5 5,5 -5,5  z" class="primitive"/>
    </g>
    <g stroke="#000000" id="img-f94d333f-50">
      <g transform="translate(95.71,35)">
        <g class="primitive">
          <text text-anchor="middle" dy="0.35em">←</text>
        </g>
      </g>
    </g>
  </g>
  <g stroke="#808080" fill="#41A050" id="img-f94d333f-51">
    <g transform="translate(95.71,45)">
      <path d="M-5,-5 L5,-5 5,5 -5,5  z" class="primitive"/>
    </g>
    <g stroke="#000000" id="img-f94d333f-52">
      <g transform="translate(95.71,45)">
        <g class="primitive">
          <text text-anchor="middle" dy="0.35em">←</text>
        </g>
      </g>
    </g>
  </g>
  <g stroke="#808080" fill="#4BA65A" id="img-f94d333f-53">
    <g transform="translate(95.71,55)">
      <path d="M-5,-5 L5,-5 5,5 -5,5  z" class="primitive"/>
    </g>
    <g stroke="#000000" id="img-f94d333f-54">
      <g transform="translate(95.71,55)">
        <g class="primitive">
          <text text-anchor="middle" dy="0.35em">←</text>
        </g>
      </g>
    </g>
  </g>
  <g stroke="#808080" fill="#67B373" id="img-f94d333f-55">
    <g transform="translate(95.71,65)">
      <path d="M-5,-5 L5,-5 5,5 -5,5  z" class="primitive"/>
    </g>
    <g stroke="#000000" id="img-f94d333f-56">
      <g transform="translate(95.71,65)">
        <g class="primitive">
          <text text-anchor="middle" dy="0.35em">←</text>
        </g>
      </g>
    </g>
  </g>
  <g stroke="#808080" fill="#9DCEA5" id="img-f94d333f-57">
    <g transform="translate(95.71,75)">
      <path d="M-5,-5 L5,-5 5,5 -5,5  z" class="primitive"/>
    </g>
    <g stroke="#000000" id="img-f94d333f-58">
      <g transform="translate(95.71,75)">
        <g class="primitive">
          <text text-anchor="middle" dy="0.35em">←</text>
        </g>
      </g>
    </g>
  </g>
  <g stroke="#808080" fill="#53A960" id="img-f94d333f-59">
    <g transform="translate(95.71,85)">
      <path d="M-5,-5 L5,-5 5,5 -5,5  z" class="primitive"/>
    </g>
    <g stroke="#000000" id="img-f94d333f-60">
      <g transform="translate(95.71,85)">
        <g class="primitive">
          <text text-anchor="middle" dy="0.35em">↓</text>
        </g>
      </g>
    </g>
  </g>
  <g stroke="#808080" fill="#309841" id="img-f94d333f-61">
    <g transform="translate(95.71,95)">
      <path d="M-5,-5 L5,-5 5,5 -5,5  z" class="primitive"/>
    </g>
    <g stroke="#000000" id="img-f94d333f-62">
      <g transform="translate(95.71,95)">
        <g class="primitive">
          <text text-anchor="middle" dy="0.35em">→</text>
        </g>
      </g>
    </g>
  </g>
  <g stroke="#808080" fill="#3B9E4B" id="img-f94d333f-63">
    <g transform="translate(85.71,5)">
      <path d="M-5,-5 L5,-5 5,5 -5,5  z" class="primitive"/>
    </g>
    <g stroke="#000000" id="img-f94d333f-64">
      <g transform="translate(85.71,5)">
        <g class="primitive">
          <text text-anchor="middle" dy="0.35em">←</text>
        </g>
      </g>
    </g>
  </g>
  <g stroke="#808080" fill="#3B9E4B" id="img-f94d333f-65">
    <g transform="translate(85.71,15)">
      <path d="M-5,-5 L5,-5 5,5 -5,5  z" class="primitive"/>
    </g>
    <g stroke="#000000" id="img-f94d333f-66">
      <g transform="translate(85.71,15)">
        <g class="primitive">
          <text text-anchor="middle" dy="0.35em">←</text>
        </g>
      </g>
    </g>
  </g>
  <g stroke="#808080" fill="#3B9E4B" id="img-f94d333f-67">
    <g transform="translate(85.71,25)">
      <path d="M-5,-5 L5,-5 5,5 -5,5  z" class="primitive"/>
    </g>
    <g stroke="#000000" id="img-f94d333f-68">
      <g transform="translate(85.71,25)">
        <g class="primitive">
          <text text-anchor="middle" dy="0.35em">←</text>
        </g>
      </g>
    </g>
  </g>
  <g stroke="#808080" fill="#3C9E4B" id="img-f94d333f-69">
    <g transform="translate(85.71,35)">
      <path d="M-5,-5 L5,-5 5,5 -5,5  z" class="primitive"/>
    </g>
    <g stroke="#000000" id="img-f94d333f-70">
      <g transform="translate(85.71,35)">
        <g class="primitive">
          <text text-anchor="middle" dy="0.35em">←</text>
        </g>
      </g>
    </g>
  </g>
  <g stroke="#808080" fill="#3D9E4D" id="img-f94d333f-71">
    <g transform="translate(85.71,45)">
      <path d="M-5,-5 L5,-5 5,5 -5,5  z" class="primitive"/>
    </g>
    <g stroke="#000000" id="img-f94d333f-72">
      <g transform="translate(85.71,45)">
        <g class="primitive">
          <text text-anchor="middle" dy="0.35em">←</text>
        </g>
      </g>
    </g>
  </g>
  <g stroke="#808080" fill="#40A050" id="img-f94d333f-73">
    <g transform="translate(85.71,55)">
      <path d="M-5,-5 L5,-5 5,5 -5,5  z" class="primitive"/>
    </g>
    <g stroke="#000000" id="img-f94d333f-74">
      <g transform="translate(85.71,55)">
        <g class="primitive">
          <text text-anchor="middle" dy="0.35em">←</text>
        </g>
      </g>
    </g>
  </g>
  <g stroke="#808080" fill="#48A456" id="img-f94d333f-75">
    <g transform="translate(85.71,65)">
      <path d="M-5,-5 L5,-5 5,5 -5,5  z" class="primitive"/>
    </g>
    <g stroke="#000000" id="img-f94d333f-76">
      <g transform="translate(85.71,65)">
        <g class="primitive">
          <text text-anchor="middle" dy="0.35em">←</text>
        </g>
      </g>
    </g>
  </g>
  <g stroke="#808080" fill="#4FA85E" id="img-f94d333f-77">
    <g transform="translate(85.71,75)">
      <path d="M-5,-5 L5,-5 5,5 -5,5  z" class="primitive"/>
    </g>
    <g stroke="#000000" id="img-f94d333f-78">
      <g transform="translate(85.71,75)">
        <g class="primitive">
          <text text-anchor="middle" dy="0.35em">←</text>
        </g>
      </g>
    </g>
  </g>
  <g stroke="#808080" fill="#3F9F4E" id="img-f94d333f-79">
    <g transform="translate(85.71,85)">
      <path d="M-5,-5 L5,-5 5,5 -5,5  z" class="primitive"/>
    </g>
    <g stroke="#000000" id="img-f94d333f-80">
      <g transform="translate(85.71,85)">
        <g class="primitive">
          <text text-anchor="middle" dy="0.35em">↓</text>
        </g>
      </g>
    </g>
  </g>
  <g stroke="#808080" fill="#349A45" id="img-f94d333f-81">
    <g transform="translate(85.71,95)">
      <path d="M-5,-5 L5,-5 5,5 -5,5  z" class="primitive"/>
    </g>
    <g stroke="#000000" id="img-f94d333f-82">
      <g transform="translate(85.71,95)">
        <g class="primitive">
          <text text-anchor="middle" dy="0.35em">→</text>
        </g>
      </g>
    </g>
  </g>
  <g stroke="#808080" fill="#3B9D4B" id="img-f94d333f-83">
    <g transform="translate(75.71,5)">
      <path d="M-5,-5 L5,-5 5,5 -5,5  z" class="primitive"/>
    </g>
    <g stroke="#000000" id="img-f94d333f-84">
      <g transform="translate(75.71,5)">
        <g class="primitive">
          <text text-anchor="middle" dy="0.35em">←</text>
        </g>
      </g>
    </g>
  </g>
  <g stroke="#808080" fill="#3B9D4B" id="img-f94d333f-85">
    <g transform="translate(75.71,15)">
      <path d="M-5,-5 L5,-5 5,5 -5,5  z" class="primitive"/>
    </g>
    <g stroke="#000000" id="img-f94d333f-86">
      <g transform="translate(75.71,15)">
        <g class="primitive">
          <text text-anchor="middle" dy="0.35em">←</text>
        </g>
      </g>
    </g>
  </g>
  <g stroke="#808080" fill="#3B9D4B" id="img-f94d333f-87">
    <g transform="translate(75.71,25)">
      <path d="M-5,-5 L5,-5 5,5 -5,5  z" class="primitive"/>
    </g>
    <g stroke="#000000" id="img-f94d333f-88">
      <g transform="translate(75.71,25)">
        <g class="primitive">
          <text text-anchor="middle" dy="0.35em">←</text>
        </g>
      </g>
    </g>
  </g>
  <g stroke="#808080" fill="#3B9D4A" id="img-f94d333f-89">
    <g transform="translate(75.71,35)">
      <path d="M-5,-5 L5,-5 5,5 -5,5  z" class="primitive"/>
    </g>
    <g stroke="#000000" id="img-f94d333f-90">
      <g transform="translate(75.71,35)">
        <g class="primitive">
          <text text-anchor="middle" dy="0.35em">←</text>
        </g>
      </g>
    </g>
  </g>
  <g stroke="#808080" fill="#3B9D4B" id="img-f94d333f-91">
    <g transform="translate(75.71,45)">
      <path d="M-5,-5 L5,-5 5,5 -5,5  z" class="primitive"/>
    </g>
    <g stroke="#000000" id="img-f94d333f-92">
      <g transform="translate(75.71,45)">
        <g class="primitive">
          <text text-anchor="middle" dy="0.35em">←</text>
        </g>
      </g>
    </g>
  </g>
  <g stroke="#808080" fill="#3B9E4B" id="img-f94d333f-93">
    <g transform="translate(75.71,55)">
      <path d="M-5,-5 L5,-5 5,5 -5,5  z" class="primitive"/>
    </g>
    <g stroke="#000000" id="img-f94d333f-94">
      <g transform="translate(75.71,55)">
        <g class="primitive">
          <text text-anchor="middle" dy="0.35em">←</text>
        </g>
      </g>
    </g>
  </g>
  <g stroke="#808080" fill="#3D9E4C" id="img-f94d333f-95">
    <g transform="translate(75.71,65)">
      <path d="M-5,-5 L5,-5 5,5 -5,5  z" class="primitive"/>
    </g>
    <g stroke="#000000" id="img-f94d333f-96">
      <g transform="translate(75.71,65)">
        <g class="primitive">
          <text text-anchor="middle" dy="0.35em">←</text>
        </g>
      </g>
    </g>
  </g>
  <g stroke="#808080" fill="#3D9F4D" id="img-f94d333f-97">
    <g transform="translate(75.71,75)">
      <path d="M-5,-5 L5,-5 5,5 -5,5  z" class="primitive"/>
    </g>
    <g stroke="#000000" id="img-f94d333f-98">
      <g transform="translate(75.71,75)">
        <g class="primitive">
          <text text-anchor="middle" dy="0.35em">↓</text>
        </g>
      </g>
    </g>
  </g>
  <g stroke="#808080" fill="#399C49" id="img-f94d333f-99">
    <g transform="translate(75.71,85)">
      <path d="M-5,-5 L5,-5 5,5 -5,5  z" class="primitive"/>
    </g>
    <g stroke="#000000" id="img-f94d333f-100">
      <g transform="translate(75.71,85)">
        <g class="primitive">
          <text text-anchor="middle" dy="0.35em">↓</text>
        </g>
      </g>
    </g>
  </g>
  <g stroke="#808080" fill="#369B46" id="img-f94d333f-101">
    <g transform="translate(75.71,95)">
      <path d="M-5,-5 L5,-5 5,5 -5,5  z" class="primitive"/>
    </g>
    <g stroke="#000000" id="img-f94d333f-102">
      <g transform="translate(75.71,95)">
        <g class="primitive">
          <text text-anchor="middle" dy="0.35em">→</text>
        </g>
      </g>
    </g>
  </g>
  <g stroke="#808080" fill="#3B9D4B" id="img-f94d333f-103">
    <g transform="translate(65.71,5)">
      <path d="M-5,-5 L5,-5 5,5 -5,5  z" class="primitive"/>
    </g>
    <g stroke="#000000" id="img-f94d333f-104">
      <g transform="translate(65.71,5)">
        <g class="primitive">
          <text text-anchor="middle" dy="0.35em">←</text>
        </g>
      </g>
    </g>
  </g>
  <g stroke="#808080" fill="#3A9D4A" id="img-f94d333f-105">
    <g transform="translate(65.71,15)">
      <path d="M-5,-5 L5,-5 5,5 -5,5  z" class="primitive"/>
    </g>
    <g stroke="#000000" id="img-f94d333f-106">
      <g transform="translate(65.71,15)">
        <g class="primitive">
          <text text-anchor="middle" dy="0.35em">←</text>
        </g>
      </g>
    </g>
  </g>
  <g stroke="#808080" fill="#3A9D4A" id="img-f94d333f-107">
    <g transform="translate(65.71,25)">
      <path d="M-5,-5 L5,-5 5,5 -5,5  z" class="primitive"/>
    </g>
    <g stroke="#000000" id="img-f94d333f-108">
      <g transform="translate(65.71,25)">
        <g class="primitive">
          <text text-anchor="middle" dy="0.35em">←</text>
        </g>
      </g>
    </g>
  </g>
  <g stroke="#808080" fill="#3A9D4A" id="img-f94d333f-109">
    <g transform="translate(65.71,35)">
      <path d="M-5,-5 L5,-5 5,5 -5,5  z" class="primitive"/>
    </g>
    <g stroke="#000000" id="img-f94d333f-110">
      <g transform="translate(65.71,35)">
        <g class="primitive">
          <text text-anchor="middle" dy="0.35em">←</text>
        </g>
      </g>
    </g>
  </g>
  <g stroke="#808080" fill="#3A9D4A" id="img-f94d333f-111">
    <g transform="translate(65.71,45)">
      <path d="M-5,-5 L5,-5 5,5 -5,5  z" class="primitive"/>
    </g>
    <g stroke="#000000" id="img-f94d333f-112">
      <g transform="translate(65.71,45)">
        <g class="primitive">
          <text text-anchor="middle" dy="0.35em">←</text>
        </g>
      </g>
    </g>
  </g>
  <g stroke="#808080" fill="#399D49" id="img-f94d333f-113">
    <g transform="translate(65.71,55)">
      <path d="M-5,-5 L5,-5 5,5 -5,5  z" class="primitive"/>
    </g>
    <g stroke="#000000" id="img-f94d333f-114">
      <g transform="translate(65.71,55)">
        <g class="primitive">
          <text text-anchor="middle" dy="0.35em">←</text>
        </g>
      </g>
    </g>
  </g>
  <g stroke="#808080" fill="#399D49" id="img-f94d333f-115">
    <g transform="translate(65.71,65)">
      <path d="M-5,-5 L5,-5 5,5 -5,5  z" class="primitive"/>
    </g>
    <g stroke="#000000" id="img-f94d333f-116">
      <g transform="translate(65.71,65)">
        <g class="primitive">
          <text text-anchor="middle" dy="0.35em">←</text>
        </g>
      </g>
    </g>
  </g>
  <g stroke="#808080" fill="#399C49" id="img-f94d333f-117">
    <g transform="translate(65.71,75)">
      <path d="M-5,-5 L5,-5 5,5 -5,5  z" class="primitive"/>
    </g>
    <g stroke="#000000" id="img-f94d333f-118">
      <g transform="translate(65.71,75)">
        <g class="primitive">
          <text text-anchor="middle" dy="0.35em">↓</text>
        </g>
      </g>
    </g>
  </g>
  <g stroke="#808080" fill="#379C47" id="img-f94d333f-119">
    <g transform="translate(65.71,85)">
      <path d="M-5,-5 L5,-5 5,5 -5,5  z" class="primitive"/>
    </g>
    <g stroke="#000000" id="img-f94d333f-120">
      <g transform="translate(65.71,85)">
        <g class="primitive">
          <text text-anchor="middle" dy="0.35em">↓</text>
        </g>
      </g>
    </g>
  </g>
  <g stroke="#808080" fill="#369B46" id="img-f94d333f-121">
    <g transform="translate(65.71,95)">
      <path d="M-5,-5 L5,-5 5,5 -5,5  z" class="primitive"/>
    </g>
    <g stroke="#000000" id="img-f94d333f-122">
      <g transform="translate(65.71,95)">
        <g class="primitive">
          <text text-anchor="middle" dy="0.35em">→</text>
        </g>
      </g>
    </g>
  </g>
  <g stroke="#808080" fill="#3A9D4A" id="img-f94d333f-123">
    <g transform="translate(55.71,5)">
      <path d="M-5,-5 L5,-5 5,5 -5,5  z" class="primitive"/>
    </g>
    <g stroke="#000000" id="img-f94d333f-124">
      <g transform="translate(55.71,5)">
        <g class="primitive">
          <text text-anchor="middle" dy="0.35em">↓</text>
        </g>
      </g>
    </g>
  </g>
  <g stroke="#808080" fill="#3A9D4A" id="img-f94d333f-125">
    <g transform="translate(55.71,15)">
      <path d="M-5,-5 L5,-5 5,5 -5,5  z" class="primitive"/>
    </g>
    <g stroke="#000000" id="img-f94d333f-126">
      <g transform="translate(55.71,15)">
        <g class="primitive">
          <text text-anchor="middle" dy="0.35em">↓</text>
        </g>
      </g>
    </g>
  </g>
  <g stroke="#808080" fill="#3A9D4A" id="img-f94d333f-127">
    <g transform="translate(55.71,25)">
      <path d="M-5,-5 L5,-5 5,5 -5,5  z" class="primitive"/>
    </g>
    <g stroke="#000000" id="img-f94d333f-128">
      <g transform="translate(55.71,25)">
        <g class="primitive">
          <text text-anchor="middle" dy="0.35em">↓</text>
        </g>
      </g>
    </g>
  </g>
  <g stroke="#808080" fill="#399D49" id="img-f94d333f-129">
    <g transform="translate(55.71,35)">
      <path d="M-5,-5 L5,-5 5,5 -5,5  z" class="primitive"/>
    </g>
    <g stroke="#000000" id="img-f94d333f-130">
      <g transform="translate(55.71,35)">
        <g class="primitive">
          <text text-anchor="middle" dy="0.35em">↓</text>
        </g>
      </g>
    </g>
  </g>
  <g stroke="#808080" fill="#399C49" id="img-f94d333f-131">
    <g transform="translate(55.71,45)">
      <path d="M-5,-5 L5,-5 5,5 -5,5  z" class="primitive"/>
    </g>
    <g stroke="#000000" id="img-f94d333f-132">
      <g transform="translate(55.71,45)">
        <g class="primitive">
          <text text-anchor="middle" dy="0.35em">↓</text>
        </g>
      </g>
    </g>
  </g>
  <g stroke="#808080" fill="#399C49" id="img-f94d333f-133">
    <g transform="translate(55.71,55)">
      <path d="M-5,-5 L5,-5 5,5 -5,5  z" class="primitive"/>
    </g>
    <g stroke="#000000" id="img-f94d333f-134">
      <g transform="translate(55.71,55)">
        <g class="primitive">
          <text text-anchor="middle" dy="0.35em">↓</text>
        </g>
      </g>
    </g>
  </g>
  <g stroke="#808080" fill="#389C48" id="img-f94d333f-135">
    <g transform="translate(55.71,65)">
      <path d="M-5,-5 L5,-5 5,5 -5,5  z" class="primitive"/>
    </g>
    <g stroke="#000000" id="img-f94d333f-136">
      <g transform="translate(55.71,65)">
        <g class="primitive">
          <text text-anchor="middle" dy="0.35em">↓</text>
        </g>
      </g>
    </g>
  </g>
  <g stroke="#808080" fill="#389C48" id="img-f94d333f-137">
    <g transform="translate(55.71,75)">
      <path d="M-5,-5 L5,-5 5,5 -5,5  z" class="primitive"/>
    </g>
    <g stroke="#000000" id="img-f94d333f-138">
      <g transform="translate(55.71,75)">
        <g class="primitive">
          <text text-anchor="middle" dy="0.35em">↓</text>
        </g>
      </g>
    </g>
  </g>
  <g stroke="#808080" fill="#379B47" id="img-f94d333f-139">
    <g transform="translate(55.71,85)">
      <path d="M-5,-5 L5,-5 5,5 -5,5  z" class="primitive"/>
    </g>
    <g stroke="#000000" id="img-f94d333f-140">
      <g transform="translate(55.71,85)">
        <g class="primitive">
          <text text-anchor="middle" dy="0.35em">↓</text>
        </g>
      </g>
    </g>
  </g>
  <g stroke="#808080" fill="#379B47" id="img-f94d333f-141">
    <g transform="translate(55.71,95)">
      <path d="M-5,-5 L5,-5 5,5 -5,5  z" class="primitive"/>
    </g>
    <g stroke="#000000" id="img-f94d333f-142">
      <g transform="translate(55.71,95)">
        <g class="primitive">
          <text text-anchor="middle" dy="0.35em">→</text>
        </g>
      </g>
    </g>
  </g>
  <g stroke="#808080" fill="#3A9D4A" id="img-f94d333f-143">
    <g transform="translate(45.71,5)">
      <path d="M-5,-5 L5,-5 5,5 -5,5  z" class="primitive"/>
    </g>
    <g stroke="#000000" id="img-f94d333f-144">
      <g transform="translate(45.71,5)">
        <g class="primitive">
          <text text-anchor="middle" dy="0.35em">↓</text>
        </g>
      </g>
    </g>
  </g>
  <g stroke="#808080" fill="#3A9D4A" id="img-f94d333f-145">
    <g transform="translate(45.71,15)">
      <path d="M-5,-5 L5,-5 5,5 -5,5  z" class="primitive"/>
    </g>
    <g stroke="#000000" id="img-f94d333f-146">
      <g transform="translate(45.71,15)">
        <g class="primitive">
          <text text-anchor="middle" dy="0.35em">↓</text>
        </g>
      </g>
    </g>
  </g>
  <g stroke="#808080" fill="#399D49" id="img-f94d333f-147">
    <g transform="translate(45.71,25)">
      <path d="M-5,-5 L5,-5 5,5 -5,5  z" class="primitive"/>
    </g>
    <g stroke="#000000" id="img-f94d333f-148">
      <g transform="translate(45.71,25)">
        <g class="primitive">
          <text text-anchor="middle" dy="0.35em">↓</text>
        </g>
      </g>
    </g>
  </g>
  <g stroke="#808080" fill="#399D49" id="img-f94d333f-149">
    <g transform="translate(45.71,35)">
      <path d="M-5,-5 L5,-5 5,5 -5,5  z" class="primitive"/>
    </g>
    <g stroke="#000000" id="img-f94d333f-150">
      <g transform="translate(45.71,35)">
        <g class="primitive">
          <text text-anchor="middle" dy="0.35em">↓</text>
        </g>
      </g>
    </g>
  </g>
  <g stroke="#808080" fill="#399C49" id="img-f94d333f-151">
    <g transform="translate(45.71,45)">
      <path d="M-5,-5 L5,-5 5,5 -5,5  z" class="primitive"/>
    </g>
    <g stroke="#000000" id="img-f94d333f-152">
      <g transform="translate(45.71,45)">
        <g class="primitive">
          <text text-anchor="middle" dy="0.35em">↓</text>
        </g>
      </g>
    </g>
  </g>
  <g stroke="#808080" fill="#389C48" id="img-f94d333f-153">
    <g transform="translate(45.71,55)">
      <path d="M-5,-5 L5,-5 5,5 -5,5  z" class="primitive"/>
    </g>
    <g stroke="#000000" id="img-f94d333f-154">
      <g transform="translate(45.71,55)">
        <g class="primitive">
          <text text-anchor="middle" dy="0.35em">↓</text>
        </g>
      </g>
    </g>
  </g>
  <g stroke="#808080" fill="#389C48" id="img-f94d333f-155">
    <g transform="translate(45.71,65)">
      <path d="M-5,-5 L5,-5 5,5 -5,5  z" class="primitive"/>
    </g>
    <g stroke="#000000" id="img-f94d333f-156">
      <g transform="translate(45.71,65)">
        <g class="primitive">
          <text text-anchor="middle" dy="0.35em">↓</text>
        </g>
      </g>
    </g>
  </g>
  <g stroke="#808080" fill="#379C48" id="img-f94d333f-157">
    <g transform="translate(45.71,75)">
      <path d="M-5,-5 L5,-5 5,5 -5,5  z" class="primitive"/>
    </g>
    <g stroke="#000000" id="img-f94d333f-158">
      <g transform="translate(45.71,75)">
        <g class="primitive">
          <text text-anchor="middle" dy="0.35em">↓</text>
        </g>
      </g>
    </g>
  </g>
  <g stroke="#808080" fill="#379C47" id="img-f94d333f-159">
    <g transform="translate(45.71,85)">
      <path d="M-5,-5 L5,-5 5,5 -5,5  z" class="primitive"/>
    </g>
    <g stroke="#000000" id="img-f94d333f-160">
      <g transform="translate(45.71,85)">
        <g class="primitive">
          <text text-anchor="middle" dy="0.35em">↓</text>
        </g>
      </g>
    </g>
  </g>
  <g stroke="#808080" fill="#379B47" id="img-f94d333f-161">
    <g transform="translate(45.71,95)">
      <path d="M-5,-5 L5,-5 5,5 -5,5  z" class="primitive"/>
    </g>
    <g stroke="#000000" id="img-f94d333f-162">
      <g transform="translate(45.71,95)">
        <g class="primitive">
          <text text-anchor="middle" dy="0.35em">→</text>
        </g>
      </g>
    </g>
  </g>
  <g stroke="#808080" fill="#3A9D4A" id="img-f94d333f-163">
    <g transform="translate(35.71,5)">
      <path d="M-5,-5 L5,-5 5,5 -5,5  z" class="primitive"/>
    </g>
    <g stroke="#000000" id="img-f94d333f-164">
      <g transform="translate(35.71,5)">
        <g class="primitive">
          <text text-anchor="middle" dy="0.35em">↓</text>
        </g>
      </g>
    </g>
  </g>
  <g stroke="#808080" fill="#3A9D4A" id="img-f94d333f-165">
    <g transform="translate(35.71,15)">
      <path d="M-5,-5 L5,-5 5,5 -5,5  z" class="primitive"/>
    </g>
    <g stroke="#000000" id="img-f94d333f-166">
      <g transform="translate(35.71,15)">
        <g class="primitive">
          <text text-anchor="middle" dy="0.35em">↓</text>
        </g>
      </g>
    </g>
  </g>
  <g stroke="#808080" fill="#399D49" id="img-f94d333f-167">
    <g transform="translate(35.71,25)">
      <path d="M-5,-5 L5,-5 5,5 -5,5  z" class="primitive"/>
    </g>
    <g stroke="#000000" id="img-f94d333f-168">
      <g transform="translate(35.71,25)">
        <g class="primitive">
          <text text-anchor="middle" dy="0.35em">↓</text>
        </g>
      </g>
    </g>
  </g>
  <g stroke="#808080" fill="#399D49" id="img-f94d333f-169">
    <g transform="translate(35.71,35)">
      <path d="M-5,-5 L5,-5 5,5 -5,5  z" class="primitive"/>
    </g>
    <g stroke="#000000" id="img-f94d333f-170">
      <g transform="translate(35.71,35)">
        <g class="primitive">
          <text text-anchor="middle" dy="0.35em">↓</text>
        </g>
      </g>
    </g>
  </g>
  <g stroke="#808080" fill="#399C49" id="img-f94d333f-171">
    <g transform="translate(35.71,45)">
      <path d="M-5,-5 L5,-5 5,5 -5,5  z" class="primitive"/>
    </g>
    <g stroke="#000000" id="img-f94d333f-172">
      <g transform="translate(35.71,45)">
        <g class="primitive">
          <text text-anchor="middle" dy="0.35em">↓</text>
        </g>
      </g>
    </g>
  </g>
  <g stroke="#808080" fill="#389C48" id="img-f94d333f-173">
    <g transform="translate(35.71,55)">
      <path d="M-5,-5 L5,-5 5,5 -5,5  z" class="primitive"/>
    </g>
    <g stroke="#000000" id="img-f94d333f-174">
      <g transform="translate(35.71,55)">
        <g class="primitive">
          <text text-anchor="middle" dy="0.35em">↓</text>
        </g>
      </g>
    </g>
  </g>
  <g stroke="#808080" fill="#389C48" id="img-f94d333f-175">
    <g transform="translate(35.71,65)">
      <path d="M-5,-5 L5,-5 5,5 -5,5  z" class="primitive"/>
    </g>
    <g stroke="#000000" id="img-f94d333f-176">
      <g transform="translate(35.71,65)">
        <g class="primitive">
          <text text-anchor="middle" dy="0.35em">↓</text>
        </g>
      </g>
    </g>
  </g>
  <g stroke="#808080" fill="#389C48" id="img-f94d333f-177">
    <g transform="translate(35.71,75)">
      <path d="M-5,-5 L5,-5 5,5 -5,5  z" class="primitive"/>
    </g>
    <g stroke="#000000" id="img-f94d333f-178">
      <g transform="translate(35.71,75)">
        <g class="primitive">
          <text text-anchor="middle" dy="0.35em">↓</text>
        </g>
      </g>
    </g>
  </g>
  <g stroke="#808080" fill="#389C48" id="img-f94d333f-179">
    <g transform="translate(35.71,85)">
      <path d="M-5,-5 L5,-5 5,5 -5,5  z" class="primitive"/>
    </g>
    <g stroke="#000000" id="img-f94d333f-180">
      <g transform="translate(35.71,85)">
        <g class="primitive">
          <text text-anchor="middle" dy="0.35em">→</text>
        </g>
      </g>
    </g>
  </g>
  <g stroke="#808080" fill="#379C48" id="img-f94d333f-181">
    <g transform="translate(35.71,95)">
      <path d="M-5,-5 L5,-5 5,5 -5,5  z" class="primitive"/>
    </g>
    <g stroke="#000000" id="img-f94d333f-182">
      <g transform="translate(35.71,95)">
        <g class="primitive">
          <text text-anchor="middle" dy="0.35em">→</text>
        </g>
      </g>
    </g>
  </g>
  <g stroke="#808080" fill="#3A9D4A" id="img-f94d333f-183">
    <g transform="translate(25.71,5)">
      <path d="M-5,-5 L5,-5 5,5 -5,5  z" class="primitive"/>
    </g>
    <g stroke="#000000" id="img-f94d333f-184">
      <g transform="translate(25.71,5)">
        <g class="primitive">
          <text text-anchor="middle" dy="0.35em">↓</text>
        </g>
      </g>
    </g>
  </g>
  <g stroke="#808080" fill="#3A9D4A" id="img-f94d333f-185">
    <g transform="translate(25.71,15)">
      <path d="M-5,-5 L5,-5 5,5 -5,5  z" class="primitive"/>
    </g>
    <g stroke="#000000" id="img-f94d333f-186">
      <g transform="translate(25.71,15)">
        <g class="primitive">
          <text text-anchor="middle" dy="0.35em">↓</text>
        </g>
      </g>
    </g>
  </g>
  <g stroke="#808080" fill="#3A9D4A" id="img-f94d333f-187">
    <g transform="translate(25.71,25)">
      <path d="M-5,-5 L5,-5 5,5 -5,5  z" class="primitive"/>
    </g>
    <g stroke="#000000" id="img-f94d333f-188">
      <g transform="translate(25.71,25)">
        <g class="primitive">
          <text text-anchor="middle" dy="0.35em">↓</text>
        </g>
      </g>
    </g>
  </g>
  <g stroke="#808080" fill="#399D49" id="img-f94d333f-189">
    <g transform="translate(25.71,35)">
      <path d="M-5,-5 L5,-5 5,5 -5,5  z" class="primitive"/>
    </g>
    <g stroke="#000000" id="img-f94d333f-190">
      <g transform="translate(25.71,35)">
        <g class="primitive">
          <text text-anchor="middle" dy="0.35em">↓</text>
        </g>
      </g>
    </g>
  </g>
  <g stroke="#808080" fill="#399C49" id="img-f94d333f-191">
    <g transform="translate(25.71,45)">
      <path d="M-5,-5 L5,-5 5,5 -5,5  z" class="primitive"/>
    </g>
    <g stroke="#000000" id="img-f94d333f-192">
      <g transform="translate(25.71,45)">
        <g class="primitive">
          <text text-anchor="middle" dy="0.35em">↓</text>
        </g>
      </g>
    </g>
  </g>
  <g stroke="#808080" fill="#399C49" id="img-f94d333f-193">
    <g transform="translate(25.71,55)">
      <path d="M-5,-5 L5,-5 5,5 -5,5  z" class="primitive"/>
    </g>
    <g stroke="#000000" id="img-f94d333f-194">
      <g transform="translate(25.71,55)">
        <g class="primitive">
          <text text-anchor="middle" dy="0.35em">↓</text>
        </g>
      </g>
    </g>
  </g>
  <g stroke="#808080" fill="#389C48" id="img-f94d333f-195">
    <g transform="translate(25.71,65)">
      <path d="M-5,-5 L5,-5 5,5 -5,5  z" class="primitive"/>
    </g>
    <g stroke="#000000" id="img-f94d333f-196">
      <g transform="translate(25.71,65)">
        <g class="primitive">
          <text text-anchor="middle" dy="0.35em">↓</text>
        </g>
      </g>
    </g>
  </g>
  <g stroke="#808080" fill="#389C48" id="img-f94d333f-197">
    <g transform="translate(25.71,75)">
      <path d="M-5,-5 L5,-5 5,5 -5,5  z" class="primitive"/>
    </g>
    <g stroke="#000000" id="img-f94d333f-198">
      <g transform="translate(25.71,75)">
        <g class="primitive">
          <text text-anchor="middle" dy="0.35em">↓</text>
        </g>
      </g>
    </g>
  </g>
  <g stroke="#808080" fill="#389C48" id="img-f94d333f-199">
    <g transform="translate(25.71,85)">
      <path d="M-5,-5 L5,-5 5,5 -5,5  z" class="primitive"/>
    </g>
    <g stroke="#000000" id="img-f94d333f-200">
      <g transform="translate(25.71,85)">
        <g class="primitive">
          <text text-anchor="middle" dy="0.35em">→</text>
        </g>
      </g>
    </g>
  </g>
  <g stroke="#808080" fill="#389C48" id="img-f94d333f-201">
    <g transform="translate(25.71,95)">
      <path d="M-5,-5 L5,-5 5,5 -5,5  z" class="primitive"/>
    </g>
    <g stroke="#000000" id="img-f94d333f-202">
      <g transform="translate(25.71,95)">
        <g class="primitive">
          <text text-anchor="middle" dy="0.35em">→</text>
        </g>
      </g>
    </g>
  </g>
</g>
</svg>
