<?xml version="1.0" encoding="UTF-8"?>
<svg xmlns="http://www.w3.org/2000/svg"
     xmlns:xlink="http://www.w3.org/1999/xlink"
     version="1.2"
     width="141.42mm" height="100mm" viewBox="0 0 141.42 100"
     stroke="none"
     fill="#000000"
     stroke-width="0.3"
     font-size="3.88"
>
<defs>
  <marker id="arrow" markerWidth="15" markerHeight="7" refX="5" refY="3.5" orient="auto" markerUnits="strokeWidth">
    <path d="M0,0 L15,3.5 L0,7 z" stroke="context-stroke" fill="context-stroke"/>
  </marker>
</defs>
<g stroke="#808080" stroke-width="1" id="img-6c854cef-1">
  <g transform="translate(70.71,50)">
    <path d="M-50,-50 L50,-50 50,50 -50,50  z" class="primitive"/>
  </g>
</g>
<g stroke-width="0.5" id="img-6c854cef-2">
  <g stroke="#808080" fill="#E9F4EB" id="img-6c854cef-3">
    <g transform="translate(115.71,5)">
      <path d="M-5,-5 L5,-5 5,5 -5,5  z" class="primitive"/>
    </g>
    <g fill="#000000" stroke="#000000" id="img-6c854cef-4">
      <g transform="translate(115.71,5)">
        <g class="primitive">
          <text text-anchor="middle" dy="0.35em">←</text>
        </g>
      </g>
    </g>
  </g>
  <g stroke="#808080" fill="#E9F4EB" id="img-6c854cef-5">
    <g transform="translate(115.71,15)">
      <path d="M-5,-5 L5,-5 5,5 -5,5  z" class="primitive"/>
    </g>
    <g fill="#000000" stroke="#000000" id="img-6c854cef-6">
      <g transform="translate(115.71,15)">
        <g class="primitive">
          <text text-anchor="middle" dy="0.35em">←</text>
        </g>
      </g>
    </g>
  </g>
  <g stroke="#808080" fill="#E9F4EB" id="img-6c854cef-7">
    <g transform="translate(115.71,25)">
      <path d="M-5,-5 L5,-5 5,5 -5,5  z" class="primitive"/>
    </g>
    <g fill="#000000" stroke="#000000" id="img-6c854cef-8">
      <g transform="translate(115.71,25)">
        <g class="primitive">
          <text text-anchor="middle" dy="0.35em">←</text>
        </g>
      </g>
    </g>
  </g>
  <g stroke="#808080" fill="#E9F4EB" id="img-6c854cef-9">
    <g transform="translate(115.71,35)">
      <path d="M-5,-5 L5,-5 5,5 -5,5  z" class="primitive"/>
    </g>
    <g fill="#000000" stroke="#000000" id="img-6c854cef-10">
      <g transform="translate(115.71,35)">
        <g class="primitive">
          <text text-anchor="middle" dy="0.35em">↑</text>
        </g>
      </g>
    </g>
  </g>
  <g stroke="#808080" fill="#EAF4EB" id="img-6c854cef-11">
    <g transform="translate(115.71,45)">
      <path d="M-5,-5 L5,-5 5,5 -5,5  z" class="primitive"/>
    </g>
    <g fill="#000000" stroke="#000000" id="img-6c854cef-12">
      <g transform="translate(115.71,45)">
        <g class="primitive">
          <text text-anchor="middle" dy="0.35em">↑</text>
        </g>
      </g>
    </g>
  </g>
  <g stroke="#808080" fill="#EAF5EC" id="img-6c854cef-13">
    <g transform="translate(115.71,55)">
      <path d="M-5,-5 L5,-5 5,5 -5,5  z" class="primitive"/>
    </g>
    <g fill="#000000" stroke="#000000" id="img-6c854cef-14">
      <g transform="translate(115.71,55)">
        <g class="primitive">
          <text text-anchor="middle" dy="0.35em">↑</text>
        </g>
      </g>
    </g>
  </g>
  <g stroke="#808080" fill="#ECF5ED" id="img-6c854cef-15">
    <g transform="translate(115.71,65)">
      <path d="M-5,-5 L5,-5 5,5 -5,5  z" class="primitive"/>
    </g>
    <g fill="#000000" stroke="#000000" id="img-6c854cef-16">
      <g transform="translate(115.71,65)">
        <g class="primitive">
          <text text-anchor="middle" dy="0.35em">↑</text>
        </g>
      </g>
    </g>
  </g>
  <g stroke="#808080" fill="#EEF7EF" id="img-6c854cef-17">
    <g transform="translate(115.71,75)">
      <path d="M-5,-5 L5,-5 5,5 -5,5  z" class="primitive"/>
    </g>
    <g fill="#000000" stroke="#000000" id="img-6c854cef-18">
      <g transform="translate(115.71,75)">
        <g class="primitive">
          <text text-anchor="middle" dy="0.35em">↓</text>
        </g>
      </g>
    </g>
  </g>
  <g stroke="#808080" fill="#E9F4EB" id="img-6c854cef-19">
    <g transform="translate(115.71,85)">
      <path d="M-5,-5 L5,-5 5,5 -5,5  z" class="primitive"/>
    </g>
    <g fill="#000000" stroke="#000000" id="img-6c854cef-20">
      <g transform="translate(115.71,85)">
        <g class="primitive">
          <text text-anchor="middle" dy="0.35em">↓</text>
        </g>
      </g>
    </g>
  </g>
  <g stroke="#808080" fill="#E6F3E8" id="img-6c854cef-21">
    <g transform="translate(115.71,95)">
      <path d="M-5,-5 L5,-5 5,5 -5,5  z" class="primitive"/>
    </g>
    <g fill="#000000" stroke="#000000" id="img-6c854cef-22">
      <g transform="translate(115.71,95)">
        <g class="primitive">
          <text text-anchor="middle" dy="0.35em">↑</text>
        </g>
      </g>
    </g>
  </g>
  <g stroke="#808080" fill="#E9F4EB" id="img-6c854cef-23">
    <g transform="translate(105.71,5)">
      <path d="M-5,-5 L5,-5 5,5 -5,5  z" class="primitive"/>
    </g>
    <g fill="#000000" stroke="#000000" id="img-6c854cef-24">
      <g transform="translate(105.71,5)">
        <g class="primitive">
          <text text-anchor="middle" dy="0.35em">←</text>
        </g>
      </g>
    </g>
  </g>
  <g stroke="#808080" fill="#E9F4EB" id="img-6c854cef-25">
    <g transform="translate(105.71,15)">
      <path d="M-5,-5 L5,-5 5,5 -5,5  z" class="primitive"/>
    </g>
    <g fill="#000000" stroke="#000000" id="img-6c854cef-26">
      <g transform="translate(105.71,15)">
        <g class="primitive">
          <text text-anchor="middle" dy="0.35em">←</text>
        </g>
      </g>
    </g>
  </g>
  <g stroke="#808080" fill="#E9F4EB" id="img-6c854cef-27">
    <g transform="translate(105.71,25)">
      <path d="M-5,-5 L5,-5 5,5 -5,5  z" class="primitive"/>
    </g>
    <g fill="#000000" stroke="#000000" id="img-6c854cef-28">
      <g transform="translate(105.71,25)">
        <g class="primitive">
          <text text-anchor="middle" dy="0.35em">←</text>
        </g>
      </g>
    </g>
  </g>
  <g stroke="#808080" fill="#E9F4EB" id="img-6c854cef-29">
    <g transform="translate(105.71,35)">
      <path d="M-5,-5 L5,-5 5,5 -5,5  z" class="primitive"/>
    </g>
    <g fill="#000000" stroke="#000000" id="img-6c854cef-30">
      <g transform="translate(105.71,35)">
        <g class="primitive">
          <text text-anchor="middle" dy="0.35em">←</text>
        </g>
      </g>
    </g>
  </g>
  <g stroke="#808080" fill="#EAF4EB" id="img-6c854cef-31">
    <g transform="translate(105.71,45)">
      <path d="M-5,-5 L5,-5 5,5 -5,5  z" class="primitive"/>
    </g>
    <g fill="#000000" stroke="#000000" id="img-6c854cef-32">
      <g transform="translate(105.71,45)">
        <g class="primitive">
          <text text-anchor="middle" dy="0.35em">↑</text>
        </g>
      </g>
    </g>
  </g>
  <g stroke="#808080" fill="#EBF5EC" id="img-6c854cef-33">
    <g transform="translate(105.71,55)">
      <path d="M-5,-5 L5,-5 5,5 -5,5  z" class="primitive"/>
    </g>
    <g fill="#000000" stroke="#000000" id="img-6c854cef-34">
      <g transform="translate(105.71,55)">
        <g class="primitive">
          <text text-anchor="middle" dy="0.35em">↑</text>
        </g>
      </g>
    </g>
  </g>
  <g stroke="#808080" fill="#EEF7F0" id="img-6c854cef-35">
    <g transform="translate(105.71,65)">
      <path d="M-5,-5 L5,-5 5,5 -5,5  z" class="primitive"/>
    </g>
    <g fill="#000000" stroke="#000000" id="img-6c854cef-36">
      <g transform="translate(105.71,65)">
        <g class="primitive">
          <text text-anchor="middle" dy="0.35em">↑</text>
        </g>
      </g>
    </g>
  </g>
  <g stroke="#808080" fill="#FFFFFF" id="img-6c854cef-37">
    <g transform="translate(105.71,75)">
      <path d="M-5,-5 L5,-5 5,5 -5,5  z" class="primitive"/>
    </g>
    <g fill="#000000" stroke="#000000" id="img-6c854cef-38">
      <g transform="translate(105.71,75)">
        <g class="primitive">
          <text text-anchor="middle" dy="0.35em">↑</text>
        </g>
      </g>
    </g>
  </g>
  <g stroke="#808080" fill="#ECF6EE" id="img-6c854cef-39">
    <g transform="translate(105.71,85)">
      <path d="M-5,-5 L5,-5 5,5 -5,5  z" class="primitive"/>
    </g>
    <g fill="#000000" stroke="#000000" id="img-6c854cef-40">
      <g transform="translate(105.71,85)">
        <g class="primitive">
          <text text-anchor="middle" dy="0.35em">↓</text>
        </g>
      </g>
    </g>
  </g>
  <g stroke="#808080" fill="#E8F4EA" id="img-6c854cef-41">
    <g transform="translate(105.71,95)">
      <path d="M-5,-5 L5,-5 5,5 -5,5  z" class="primitive"/>
    </g>
    <g fill="#000000" stroke="#000000" id="img-6c854cef-42">
      <g transform="translate(105.71,95)">
        <g class="primitive">
          <text text-anchor="middle" dy="0.35em">→</text>
        </g>
      </g>
    </g>
  </g>
  <g stroke="#808080" fill="#E9F4EB" id="img-6c854cef-43">
    <g transform="translate(95.71,5)">
      <path d="M-5,-5 L5,-5 5,5 -5,5  z" class="primitive"/>
    </g>
    <g fill="#000000" stroke="#000000" id="img-6c854cef-44">
      <g transform="translate(95.71,5)">
        <g class="primitive">
          <text text-anchor="middle" dy="0.35em">←</text>
        </g>
      </g>
    </g>
  </g>
  <g stroke="#808080" fill="#E9F4EB" id="img-6c854cef-45">
    <g transform="translate(95.71,15)">
      <path d="M-5,-5 L5,-5 5,5 -5,5  z" class="primitive"/>
    </g>
    <g fill="#000000" stroke="#000000" id="img-6c854cef-46">
      <g transform="translate(95.71,15)">
        <g class="primitive">
          <text text-anchor="middle" dy="0.35em">←</text>
        </g>
      </g>
    </g>
  </g>
  <g stroke="#808080" fill="#E9F4EB" id="img-6c854cef-47">
    <g transform="translate(95.71,25)">
      <path d="M-5,-5 L5,-5 5,5 -5,5  z" class="primitive"/>
    </g>
    <g fill="#000000" stroke="#000000" id="img-6c854cef-48">
      <g transform="translate(95.71,25)">
        <g class="primitive">
          <text text-anchor="middle" dy="0.35em">←</text>
        </g>
      </g>
    </g>
  </g>
  <g stroke="#808080" fill="#E9F4EB" id="img-6c854cef-49">
    <g transform="translate(95.71,35)">
      <path d="M-5,-5 L5,-5 5,5 -5,5  z" class="primitive"/>
    </g>
    <g fill="#000000" stroke="#000000" id="img-6c854cef-50">
      <g transform="translate(95.71,35)">
        <g class="primitive">
          <text text-anchor="middle" dy="0.35em">←</text>
        </g>
      </g>
    </g>
  </g>
  <g stroke="#808080" fill="#E9F4EB" id="img-6c854cef-51">
    <g transform="translate(95.71,45)">
      <path d="M-5,-5 L5,-5 5,5 -5,5  z" class="primitive"/>
    </g>
    <g fill="#000000" stroke="#000000" id="img-6c854cef-52">
      <g transform="translate(95.71,45)">
        <g class="primitive">
          <text text-anchor="middle" dy="0.35em">←</text>
        </g>
      </g>
    </g>
  </g>
  <g stroke="#808080" fill="#EAF4EC" id="img-6c854cef-53">
    <g transform="translate(95.71,55)">
      <path d="M-5,-5 L5,-5 5,5 -5,5  z" class="primitive"/>
    </g>
    <g fill="#000000" stroke="#000000" id="img-6c854cef-54">
      <g transform="translate(95.71,55)">
        <g class="primitive">
          <text text-anchor="middle" dy="0.35em">←</text>
        </g>
      </g>
    </g>
  </g>
  <g stroke="#808080" fill="#EBF5ED" id="img-6c854cef-55">
    <g transform="translate(95.71,65)">
      <path d="M-5,-5 L5,-5 5,5 -5,5  z" class="primitive"/>
    </g>
    <g fill="#000000" stroke="#000000" id="img-6c854cef-56">
      <g transform="translate(95.71,65)">
        <g class="primitive">
          <text text-anchor="middle" dy="0.35em">←</text>
        </g>
      </g>
    </g>
  </g>
  <g stroke="#808080" fill="#EEF6EF" id="img-6c854cef-57">
    <g transform="translate(95.71,75)">
      <path d="M-5,-5 L5,-5 5,5 -5,5  z" class="primitive"/>
    </g>
    <g fill="#000000" stroke="#000000" id="img-6c854cef-58">
      <g transform="translate(95.71,75)">
        <g class="primitive">
          <text text-anchor="middle" dy="0.35em">←</text>
        </g>
      </g>
    </g>
  </g>
  <g stroke="#808080" fill="#EAF5EC" id="img-6c854cef-59">
    <g transform="translate(95.71,85)">
      <path d="M-5,-5 L5,-5 5,5 -5,5  z" class="primitive"/>
    </g>
    <g fill="#000000" stroke="#000000" id="img-6c854cef-60">
      <g transform="translate(95.71,85)">
        <g class="primitive">
          <text text-anchor="middle" dy="0.35em">↓</text>
        </g>
      </g>
    </g>
  </g>
  <g stroke="#808080" fill="#E9F4EA" id="img-6c854cef-61">
    <g transform="translate(95.71,95)">
      <path d="M-5,-5 L5,-5 5,5 -5,5  z" class="primitive"/>
    </g>
    <g fill="#000000" stroke="#000000" id="img-6c854cef-62">
      <g transform="translate(95.71,95)">
        <g class="primitive">
          <text text-anchor="middle" dy="0.35em">→</text>
        </g>
      </g>
    </g>
  </g>
  <g stroke="#808080" fill="#E9F4EB" id="img-6c854cef-63">
    <g transform="translate(85.71,5)">
      <path d="M-5,-5 L5,-5 5,5 -5,5  z" class="primitive"/>
    </g>
    <g fill="#000000" stroke="#000000" id="img-6c854cef-64">
      <g transform="translate(85.71,5)">
        <g class="primitive">
          <text text-anchor="middle" dy="0.35em">←</text>
        </g>
      </g>
    </g>
  </g>
  <g stroke="#808080" fill="#E9F4EB" id="img-6c854cef-65">
    <g transform="translate(85.71,15)">
      <path d="M-5,-5 L5,-5 5,5 -5,5  z" class="primitive"/>
    </g>
    <g fill="#000000" stroke="#000000" id="img-6c854cef-66">
      <g transform="translate(85.71,15)">
        <g class="primitive">
          <text text-anchor="middle" dy="0.35em">←</text>
        </g>
      </g>
    </g>
  </g>
  <g stroke="#808080" fill="#E9F4EB" id="img-6c854cef-67">
    <g transform="translate(85.71,25)">
      <path d="M-5,-5 L5,-5 5,5 -5,5  z" class="primitive"/>
    </g>
    <g fill="#000000" stroke="#000000" id="img-6c854cef-68">
      <g transform="translate(85.71,25)">
        <g class="primitive">
          <text text-anchor="middle" dy="0.35em">←</text>
        </g>
      </g>
    </g>
  </g>
  <g stroke="#808080" fill="#E9F4EB" id="img-6c854cef-69">
    <g transform="translate(85.71,35)">
      <path d="M-5,-5 L5,-5 5,5 -5,5  z" class="primitive"/>
    </g>
    <g fill="#000000" stroke="#000000" id="img-6c854cef-70">
      <g transform="translate(85.71,35)">
        <g class="primitive">
          <text text-anchor="middle" dy="0.35em">←</text>
        </g>
      </g>
    </g>
  </g>
  <g stroke="#808080" fill="#E9F4EB" id="img-6c854cef-71">
    <g transform="translate(85.71,45)">
      <path d="M-5,-5 L5,-5 5,5 -5,5  z" class="primitive"/>
    </g>
    <g fill="#000000" stroke="#000000" id="img-6c854cef-72">
      <g transform="translate(85.71,45)">
        <g class="primitive">
          <text text-anchor="middle" dy="0.35em">←</text>
        </g>
      </g>
    </g>
  </g>
  <g stroke="#808080" fill="#E9F4EB" id="img-6c854cef-73">
    <g transform="translate(85.71,55)">
      <path d="M-5,-5 L5,-5 5,5 -5,5  z" class="primitive"/>
    </g>
    <g fill="#000000" stroke="#000000" id="img-6c854cef-74">
      <g transform="translate(85.71,55)">
        <g class="primitive">
          <text text-anchor="middle" dy="0.35em">←</text>
        </g>
      </g>
    </g>
  </g>
  <g stroke="#808080" fill="#EAF4EB" id="img-6c854cef-75">
    <g transform="translate(85.71,65)">
      <path d="M-5,-5 L5,-5 5,5 -5,5  z" class="primitive"/>
    </g>
    <g fill="#000000" stroke="#000000" id="img-6c854cef-76">
      <g transform="translate(85.71,65)">
        <g class="primitive">
          <text text-anchor="middle" dy="0.35em">←</text>
        </g>
      </g>
    </g>
  </g>
  <g stroke="#808080" fill="#EAF5EC" id="img-6c854cef-77">
    <g transform="translate(85.71,75)">
      <path d="M-5,-5 L5,-5 5,5 -5,5  z" class="primitive"/>
    </g>
    <g fill="#000000" stroke="#000000" id="img-6c854cef-78">
      <g transform="translate(85.71,75)">
        <g class="primitive">
          <text text-anchor="middle" dy="0.35em">←</text>
        </g>
      </g>
    </g>
  </g>
  <g stroke="#808080" fill="#E9F4EB" id="img-6c854cef-79">
    <g transform="translate(85.71,85)">
      <path d="M-5,-5 L5,-5 5,5 -5,5  z" class="primitive"/>
    </g>
    <g fill="#000000" stroke="#000000" id="img-6c854cef-80">
      <g transform="translate(85.71,85)">
        <g class="primitive">
          <text text-anchor="middle" dy="0.35em">↓</text>
        </g>
      </g>
    </g>
  </g>
  <g stroke="#808080" fill="#E9F4EB" id="img-6c854cef-81">
    <g transform="translate(85.71,95)">
      <path d="M-5,-5 L5,-5 5,5 -5,5  z" class="primitive"/>
    </g>
    <g fill="#000000" stroke="#000000" id="img-6c854cef-82">
      <g transform="translate(85.71,95)">
        <g class="primitive">
          <text text-anchor="middle" dy="0.35em">→</text>
        </g>
      </g>
    </g>
  </g>
  <g stroke="#808080" fill="#E9F4EB" id="img-6c854cef-83">
    <g transform="translate(75.71,5)">
      <path d="M-5,-5 L5,-5 5,5 -5,5  z" class="primitive"/>
    </g>
    <g fill="#000000" stroke="#000000" id="img-6c854cef-84">
      <g transform="translate(75.71,5)">
        <g class="primitive">
          <text text-anchor="middle" dy="0.35em">←</text>
        </g>
      </g>
    </g>
  </g>
  <g stroke="#808080" fill="#E9F4EB" id="img-6c854cef-85">
    <g transform="translate(75.71,15)">
      <path d="M-5,-5 L5,-5 5,5 -5,5  z" class="primitive"/>
    </g>
    <g fill="#000000" stroke="#000000" id="img-6c854cef-86">
      <g transform="translate(75.71,15)">
        <g class="primitive">
          <text text-anchor="middle" dy="0.35em">←</text>
        </g>
      </g>
    </g>
  </g>
  <g stroke="#808080" fill="#E9F4EB" id="img-6c854cef-87">
    <g transform="translate(75.71,25)">
      <path d="M-5,-5 L5,-5 5,5 -5,5  z" class="primitive"/>
    </g>
    <g fill="#000000" stroke="#000000" id="img-6c854cef-88">
      <g transform="translate(75.71,25)">
        <g class="primitive">
          <text text-anchor="middle" dy="0.35em">←</text>
        </g>
      </g>
    </g>
  </g>
  <g stroke="#808080" fill="#E9F4EB" id="img-6c854cef-89">
    <g transform="translate(75.71,35)">
      <path d="M-5,-5 L5,-5 5,5 -5,5  z" class="primitive"/>
    </g>
    <g fill="#000000" stroke="#000000" id="img-6c854cef-90">
      <g transform="translate(75.71,35)">
        <g class="primitive">
          <text text-anchor="middle" dy="0.35em">←</text>
        </g>
      </g>
    </g>
  </g>
  <g stroke="#808080" fill="#E9F4EB" id="img-6c854cef-91">
    <g transform="translate(75.71,45)">
      <path d="M-5,-5 L5,-5 5,5 -5,5  z" class="primitive"/>
    </g>
    <g fill="#000000" stroke="#000000" id="img-6c854cef-92">
      <g transform="translate(75.71,45)">
        <g class="primitive">
          <text text-anchor="middle" dy="0.35em">←</text>
        </g>
      </g>
    </g>
  </g>
  <g stroke="#808080" fill="#E9F4EB" id="img-6c854cef-93">
    <g transform="translate(75.71,55)">
      <path d="M-5,-5 L5,-5 5,5 -5,5  z" class="primitive"/>
    </g>
    <g fill="#000000" stroke="#000000" id="img-6c854cef-94">
      <g transform="translate(75.71,55)">
        <g class="primitive">
          <text text-anchor="middle" dy="0.35em">←</text>
        </g>
      </g>
    </g>
  </g>
  <g stroke="#808080" fill="#E9F4EB" id="img-6c854cef-95">
    <g transform="translate(75.71,65)">
      <path d="M-5,-5 L5,-5 5,5 -5,5  z" class="primitive"/>
    </g>
    <g fill="#000000" stroke="#000000" id="img-6c854cef-96">
      <g transform="translate(75.71,65)">
        <g class="primitive">
          <text text-anchor="middle" dy="0.35em">←</text>
        </g>
      </g>
    </g>
  </g>
  <g stroke="#808080" fill="#E9F4EB" id="img-6c854cef-97">
    <g transform="translate(75.71,75)">
      <path d="M-5,-5 L5,-5 5,5 -5,5  z" class="primitive"/>
    </g>
    <g fill="#000000" stroke="#000000" id="img-6c854cef-98">
      <g transform="translate(75.71,75)">
        <g class="primitive">
          <text text-anchor="middle" dy="0.35em">↓</text>
        </g>
      </g>
    </g>
  </g>
  <g stroke="#808080" fill="#E9F4EB" id="img-6c854cef-99">
    <g transform="translate(75.71,85)">
      <path d="M-5,-5 L5,-5 5,5 -5,5  z" class="primitive"/>
    </g>
    <g fill="#000000" stroke="#000000" id="img-6c854cef-100">
      <g transform="translate(75.71,85)">
        <g class="primitive">
          <text text-anchor="middle" dy="0.35em">↓</text>
        </g>
      </g>
    </g>
  </g>
  <g stroke="#808080" fill="#E9F4EB" id="img-6c854cef-101">
    <g transform="translate(75.71,95)">
      <path d="M-5,-5 L5,-5 5,5 -5,5  z" class="primitive"/>
    </g>
    <g fill="#000000" stroke="#000000" id="img-6c854cef-102">
      <g transform="translate(75.71,95)">
        <g class="primitive">
          <text text-anchor="middle" dy="0.35em">→</text>
        </g>
      </g>
    </g>
  </g>
  <g stroke="#808080" fill="#E9F4EB" id="img-6c854cef-103">
    <g transform="translate(65.71,5)">
      <path d="M-5,-5 L5,-5 5,5 -5,5  z" class="primitive"/>
    </g>
    <g fill="#000000" stroke="#000000" id="img-6c854cef-104">
      <g transform="translate(65.71,5)">
        <g class="primitive">
          <text text-anchor="middle" dy="0.35em">←</text>
        </g>
      </g>
    </g>
  </g>
  <g stroke="#808080" fill="#E9F4EB" id="img-6c854cef-105">
    <g transform="translate(65.71,15)">
      <path d="M-5,-5 L5,-5 5,5 -5,5  z" class="primitive"/>
    </g>
    <g fill="#000000" stroke="#000000" id="img-6c854cef-106">
      <g transform="translate(65.71,15)">
        <g class="primitive">
          <text text-anchor="middle" dy="0.35em">←</text>
        </g>
      </g>
    </g>
  </g>
  <g stroke="#808080" fill="#E9F4EB" id="img-6c854cef-107">
    <g transform="translate(65.71,25)">
      <path d="M-5,-5 L5,-5 5,5 -5,5  z" class="primitive"/>
    </g>
    <g fill="#000000" stroke="#000000" id="img-6c854cef-108">
      <g transform="translate(65.71,25)">
        <g class="primitive">
          <text text-anchor="middle" dy="0.35em">←</text>
        </g>
      </g>
    </g>
  </g>
  <g stroke="#808080" fill="#E9F4EB" id="img-6c854cef-109">
    <g transform="translate(65.71,35)">
      <path d="M-5,-5 L5,-5 5,5 -5,5  z" class="primitive"/>
    </g>
    <g fill="#000000" stroke="#000000" id="img-6c854cef-110">
      <g transform="translate(65.71,35)">
        <g class="primitive">
          <text text-anchor="middle" dy="0.35em">←</text>
        </g>
      </g>
    </g>
  </g>
  <g stroke="#808080" fill="#E9F4EB" id="img-6c854cef-111">
    <g transform="translate(65.71,45)">
      <path d="M-5,-5 L5,-5 5,5 -5,5  z" class="primitive"/>
    </g>
    <g fill="#000000" stroke="#000000" id="img-6c854cef-112">
      <g transform="translate(65.71,45)">
        <g class="primitive">
          <text text-anchor="middle" dy="0.35em">←</text>
        </g>
      </g>
    </g>
  </g>
  <g stroke="#808080" fill="#E9F4EB" id="img-6c854cef-113">
    <g transform="translate(65.71,55)">
      <path d="M-5,-5 L5,-5 5,5 -5,5  z" class="primitive"/>
    </g>
    <g fill="#000000" stroke="#000000" id="img-6c854cef-114">
      <g transform="translate(65.71,55)">
        <g class="primitive">
          <text text-anchor="middle" dy="0.35em">←</text>
        </g>
      </g>
    </g>
  </g>
  <g stroke="#808080" fill="#E9F4EB" id="img-6c854cef-115">
    <g transform="translate(65.71,65)">
      <path d="M-5,-5 L5,-5 5,5 -5,5  z" class="primitive"/>
    </g>
    <g fill="#000000" stroke="#000000" id="img-6c854cef-116">
      <g transform="translate(65.71,65)">
        <g class="primitive">
          <text text-anchor="middle" dy="0.35em">←</text>
        </g>
      </g>
    </g>
  </g>
  <g stroke="#808080" fill="#E9F4EB" id="img-6c854cef-117">
    <g transform="translate(65.71,75)">
      <path d="M-5,-5 L5,-5 5,5 -5,5  z" class="primitive"/>
    </g>
    <g fill="#000000" stroke="#000000" id="img-6c854cef-118">
      <g transform="translate(65.71,75)">
        <g class="primitive">
          <text text-anchor="middle" dy="0.35em">↓</text>
        </g>
      </g>
    </g>
  </g>
  <g stroke="#808080" fill="#E9F4EB" id="img-6c854cef-119">
    <g transform="translate(65.71,85)">
      <path d="M-5,-5 L5,-5 5,5 -5,5  z" class="primitive"/>
    </g>
    <g fill="#000000" stroke="#000000" id="img-6c854cef-120">
      <g transform="translate(65.71,85)">
        <g class="primitive">
          <text text-anchor="middle" dy="0.35em">↓</text>
        </g>
      </g>
    </g>
  </g>
  <g stroke="#808080" fill="#E9F4EB" id="img-6c854cef-121">
    <g transform="translate(65.71,95)">
      <path d="M-5,-5 L5,-5 5,5 -5,5  z" class="primitive"/>
    </g>
    <g fill="#000000" stroke="#000000" id="img-6c854cef-122">
      <g transform="translate(65.71,95)">
        <g class="primitive">
          <text text-anchor="middle" dy="0.35em">→</text>
        </g>
      </g>
    </g>
  </g>
  <g stroke="#808080" fill="#E9F4EB" id="img-6c854cef-123">
    <g transform="translate(55.71,5)">
      <path d="M-5,-5 L5,-5 5,5 -5,5  z" class="primitive"/>
    </g>
    <g fill="#000000" stroke="#000000" id="img-6c854cef-124">
      <g transform="translate(55.71,5)">
        <g class="primitive">
          <text text-anchor="middle" dy="0.35em">↓</text>
        </g>
      </g>
    </g>
  </g>
  <g stroke="#808080" fill="#E9F4EB" id="img-6c854cef-125">
    <g transform="translate(55.71,15)">
      <path d="M-5,-5 L5,-5 5,5 -5,5  z" class="primitive"/>
    </g>
    <g fill="#000000" stroke="#000000" id="img-6c854cef-126">
      <g transform="translate(55.71,15)">
        <g class="primitive">
          <text text-anchor="middle" dy="0.35em">↓</text>
        </g>
      </g>
    </g>
  </g>
  <g stroke="#808080" fill="#E9F4EB" id="img-6c854cef-127">
    <g transform="translate(55.71,25)">
      <path d="M-5,-5 L5,-5 5,5 -5,5  z" class="primitive"/>
    </g>
    <g fill="#000000" stroke="#000000" id="img-6c854cef-128">
      <g transform="translate(55.71,25)">
        <g class="primitive">
          <text text-anchor="middle" dy="0.35em">↓</text>
        </g>
      </g>
    </g>
  </g>
  <g stroke="#808080" fill="#E9F4EB" id="img-6c854cef-129">
    <g transform="translate(55.71,35)">
      <path d="M-5,-5 L5,-5 5,5 -5,5  z" class="primitive"/>
    </g>
    <g fill="#000000" stroke="#000000" id="img-6c854cef-130">
      <g transform="translate(55.71,35)">
        <g class="primitive">
          <text text-anchor="middle" dy="0.35em">↓</text>
        </g>
      </g>
    </g>
  </g>
  <g stroke="#808080" fill="#E9F4EB" id="img-6c854cef-131">
    <g transform="translate(55.71,45)">
      <path d="M-5,-5 L5,-5 5,5 -5,5  z" class="primitive"/>
    </g>
    <g fill="#000000" stroke="#000000" id="img-6c854cef-132">
      <g transform="translate(55.71,45)">
        <g class="primitive">
          <text text-anchor="middle" dy="0.35em">↓</text>
        </g>
      </g>
    </g>
  </g>
  <g stroke="#808080" fill="#E9F4EB" id="img-6c854cef-133">
    <g transform="translate(55.71,55)">
      <path d="M-5,-5 L5,-5 5,5 -5,5  z" class="primitive"/>
    </g>
    <g fill="#000000" stroke="#000000" id="img-6c854cef-134">
      <g transform="translate(55.71,55)">
        <g class="primitive">
          <text text-anchor="middle" dy="0.35em">↓</text>
        </g>
      </g>
    </g>
  </g>
  <g stroke="#808080" fill="#E9F4EB" id="img-6c854cef-135">
    <g transform="translate(55.71,65)">
      <path d="M-5,-5 L5,-5 5,5 -5,5  z" class="primitive"/>
    </g>
    <g fill="#000000" stroke="#000000" id="img-6c854cef-136">
      <g transform="translate(55.71,65)">
        <g class="primitive">
          <text text-anchor="middle" dy="0.35em">↓</text>
        </g>
      </g>
    </g>
  </g>
  <g stroke="#808080" fill="#E9F4EB" id="img-6c854cef-137">
    <g transform="translate(55.71,75)">
      <path d="M-5,-5 L5,-5 5,5 -5,5  z" class="primitive"/>
    </g>
    <g fill="#000000" stroke="#000000" id="img-6c854cef-138">
      <g transform="translate(55.71,75)">
        <g class="primitive">
          <text text-anchor="middle" dy="0.35em">↓</text>
        </g>
      </g>
    </g>
  </g>
  <g stroke="#808080" fill="#E9F4EB" id="img-6c854cef-139">
    <g transform="translate(55.71,85)">
      <path d="M-5,-5 L5,-5 5,5 -5,5  z" class="primitive"/>
    </g>
    <g fill="#000000" stroke="#000000" id="img-6c854cef-140">
      <g transform="translate(55.71,85)">
        <g class="primitive">
          <text text-anchor="middle" dy="0.35em">↓</text>
        </g>
      </g>
    </g>
  </g>
  <g stroke="#808080" fill="#E9F4EB" id="img-6c854cef-141">
    <g transform="translate(55.71,95)">
      <path d="M-5,-5 L5,-5 5,5 -5,5  z" class="primitive"/>
    </g>
    <g fill="#000000" stroke="#000000" id="img-6c854cef-142">
      <g transform="translate(55.71,95)">
        <g class="primitive">
          <text text-anchor="middle" dy="0.35em">→</text>
        </g>
      </g>
    </g>
  </g>
  <g stroke="#808080" fill="#E9F4EB" id="img-6c854cef-143">
    <g transform="translate(45.71,5)">
      <path d="M-5,-5 L5,-5 5,5 -5,5  z" class="primitive"/>
    </g>
    <g fill="#000000" stroke="#000000" id="img-6c854cef-144">
      <g transform="translate(45.71,5)">
        <g class="primitive">
          <text text-anchor="middle" dy="0.35em">↓</text>
        </g>
      </g>
    </g>
  </g>
  <g stroke="#808080" fill="#E9F4EB" id="img-6c854cef-145">
    <g transform="translate(45.71,15)">
      <path d="M-5,-5 L5,-5 5,5 -5,5  z" class="primitive"/>
    </g>
    <g fill="#000000" stroke="#000000" id="img-6c854cef-146">
      <g transform="translate(45.71,15)">
        <g class="primitive">
          <text text-anchor="middle" dy="0.35em">↓</text>
        </g>
      </g>
    </g>
  </g>
  <g stroke="#808080" fill="#E9F4EB" id="img-6c854cef-147">
    <g transform="translate(45.71,25)">
      <path d="M-5,-5 L5,-5 5,5 -5,5  z" class="primitive"/>
    </g>
    <g fill="#000000" stroke="#000000" id="img-6c854cef-148">
      <g transform="translate(45.71,25)">
        <g class="primitive">
          <text text-anchor="middle" dy="0.35em">↓</text>
        </g>
      </g>
    </g>
  </g>
  <g stroke="#808080" fill="#E9F4EB" id="img-6c854cef-149">
    <g transform="translate(45.71,35)">
      <path d="M-5,-5 L5,-5 5,5 -5,5  z" class="primitive"/>
    </g>
    <g fill="#000000" stroke="#000000" id="img-6c854cef-150">
      <g transform="translate(45.71,35)">
        <g class="primitive">
          <text text-anchor="middle" dy="0.35em">↓</text>
        </g>
      </g>
    </g>
  </g>
  <g stroke="#808080" fill="#E9F4EB" id="img-6c854cef-151">
    <g transform="translate(45.71,45)">
      <path d="M-5,-5 L5,-5 5,5 -5,5  z" class="primitive"/>
    </g>
    <g fill="#000000" stroke="#000000" id="img-6c854cef-152">
      <g transform="translate(45.71,45)">
        <g class="primitive">
          <text text-anchor="middle" dy="0.35em">↓</text>
        </g>
      </g>
    </g>
  </g>
  <g stroke="#808080" fill="#E9F4EB" id="img-6c854cef-153">
    <g transform="translate(45.71,55)">
      <path d="M-5,-5 L5,-5 5,5 -5,5  z" class="primitive"/>
    </g>
    <g fill="#000000" stroke="#000000" id="img-6c854cef-154">
      <g transform="translate(45.71,55)">
        <g class="primitive">
          <text text-anchor="middle" dy="0.35em">↓</text>
        </g>
      </g>
    </g>
  </g>
  <g stroke="#808080" fill="#E9F4EB" id="img-6c854cef-155">
    <g transform="translate(45.71,65)">
      <path d="M-5,-5 L5,-5 5,5 -5,5  z" class="primitive"/>
    </g>
    <g fill="#000000" stroke="#000000" id="img-6c854cef-156">
      <g transform="translate(45.71,65)">
        <g class="primitive">
          <text text-anchor="middle" dy="0.35em">↓</text>
        </g>
      </g>
    </g>
  </g>
  <g stroke="#808080" fill="#E9F4EB" id="img-6c854cef-157">
    <g transform="translate(45.71,75)">
      <path d="M-5,-5 L5,-5 5,5 -5,5  z" class="primitive"/>
    </g>
    <g fill="#000000" stroke="#000000" id="img-6c854cef-158">
      <g transform="translate(45.71,75)">
        <g class="primitive">
          <text text-anchor="middle" dy="0.35em">↓</text>
        </g>
      </g>
    </g>
  </g>
  <g stroke="#808080" fill="#E9F4EB" id="img-6c854cef-159">
    <g transform="translate(45.71,85)">
      <path d="M-5,-5 L5,-5 5,5 -5,5  z" class="primitive"/>
    </g>
    <g fill="#000000" stroke="#000000" id="img-6c854cef-160">
      <g transform="translate(45.71,85)">
        <g class="primitive">
          <text text-anchor="middle" dy="0.35em">↓</text>
        </g>
      </g>
    </g>
  </g>
  <g stroke="#808080" fill="#E9F4EB" id="img-6c854cef-161">
    <g transform="translate(45.71,95)">
      <path d="M-5,-5 L5,-5 5,5 -5,5  z" class="primitive"/>
    </g>
    <g fill="#000000" stroke="#000000" id="img-6c854cef-162">
      <g transform="translate(45.71,95)">
        <g class="primitive">
          <text text-anchor="middle" dy="0.35em">→</text>
        </g>
      </g>
    </g>
  </g>
  <g stroke="#808080" fill="#E9F4EB" id="img-6c854cef-163">
    <g transform="translate(35.71,5)">
      <path d="M-5,-5 L5,-5 5,5 -5,5  z" class="primitive"/>
    </g>
    <g fill="#000000" stroke="#000000" id="img-6c854cef-164">
      <g transform="translate(35.71,5)">
        <g class="primitive">
          <text text-anchor="middle" dy="0.35em">↓</text>
        </g>
      </g>
    </g>
  </g>
  <g stroke="#808080" fill="#E9F4EB" id="img-6c854cef-165">
    <g transform="translate(35.71,15)">
      <path d="M-5,-5 L5,-5 5,5 -5,5  z" class="primitive"/>
    </g>
    <g fill="#000000" stroke="#000000" id="img-6c854cef-166">
      <g transform="translate(35.71,15)">
        <g class="primitive">
          <text text-anchor="middle" dy="0.35em">↓</text>
        </g>
      </g>
    </g>
  </g>
  <g stroke="#808080" fill="#E9F4EB" id="img-6c854cef-167">
    <g transform="translate(35.71,25)">
      <path d="M-5,-5 L5,-5 5,5 -5,5  z" class="primitive"/>
    </g>
    <g fill="#000000" stroke="#000000" id="img-6c854cef-168">
      <g transform="translate(35.71,25)">
        <g class="primitive">
          <text text-anchor="middle" dy="0.35em">↓</text>
        </g>
      </g>
    </g>
  </g>
  <g stroke="#808080" fill="#E9F4EB" id="img-6c854cef-169">
    <g transform="translate(35.71,35)">
      <path d="M-5,-5 L5,-5 5,5 -5,5  z" class="primitive"/>
    </g>
    <g fill="#000000" stroke="#000000" id="img-6c854cef-170">
      <g transform="translate(35.71,35)">
        <g class="primitive">
          <text text-anchor="middle" dy="0.35em">↓</text>
        </g>
      </g>
    </g>
  </g>
  <g stroke="#808080" fill="#E9F4EB" id="img-6c854cef-171">
    <g transform="translate(35.71,45)">
      <path d="M-5,-5 L5,-5 5,5 -5,5  z" class="primitive"/>
    </g>
    <g fill="#000000" stroke="#000000" id="img-6c854cef-172">
      <g transform="translate(35.71,45)">
        <g class="primitive">
          <text text-anchor="middle" dy="0.35em">↓</text>
        </g>
      </g>
    </g>
  </g>
  <g stroke="#808080" fill="#E9F4EB" id="img-6c854cef-173">
    <g transform="translate(35.71,55)">
      <path d="M-5,-5 L5,-5 5,5 -5,5  z" class="primitive"/>
    </g>
    <g fill="#000000" stroke="#000000" id="img-6c854cef-174">
      <g transform="translate(35.71,55)">
        <g class="primitive">
          <text text-anchor="middle" dy="0.35em">↓</text>
        </g>
      </g>
    </g>
  </g>
  <g stroke="#808080" fill="#E9F4EB" id="img-6c854cef-175">
    <g transform="translate(35.71,65)">
      <path d="M-5,-5 L5,-5 5,5 -5,5  z" class="primitive"/>
    </g>
    <g fill="#000000" stroke="#000000" id="img-6c854cef-176">
      <g transform="translate(35.71,65)">
        <g class="primitive">
          <text text-anchor="middle" dy="0.35em">↓</text>
        </g>
      </g>
    </g>
  </g>
  <g stroke="#808080" fill="#E9F4EB" id="img-6c854cef-177">
    <g transform="translate(35.71,75)">
      <path d="M-5,-5 L5,-5 5,5 -5,5  z" class="primitive"/>
    </g>
    <g fill="#000000" stroke="#000000" id="img-6c854cef-178">
      <g transform="translate(35.71,75)">
        <g class="primitive">
          <text text-anchor="middle" dy="0.35em">↓</text>
        </g>
      </g>
    </g>
  </g>
  <g stroke="#808080" fill="#E9F4EB" id="img-6c854cef-179">
    <g transform="translate(35.71,85)">
      <path d="M-5,-5 L5,-5 5,5 -5,5  z" class="primitive"/>
    </g>
    <g fill="#000000" stroke="#000000" id="img-6c854cef-180">
      <g transform="translate(35.71,85)">
        <g class="primitive">
          <text text-anchor="middle" dy="0.35em">→</text>
        </g>
      </g>
    </g>
  </g>
  <g stroke="#808080" fill="#E9F4EB" id="img-6c854cef-181">
    <g transform="translate(35.71,95)">
      <path d="M-5,-5 L5,-5 5,5 -5,5  z" class="primitive"/>
    </g>
    <g fill="#000000" stroke="#000000" id="img-6c854cef-182">
      <g transform="translate(35.71,95)">
        <g class="primitive">
          <text text-anchor="middle" dy="0.35em">→</text>
        </g>
      </g>
    </g>
  </g>
  <g stroke="#808080" fill="#E9F4EB" id="img-6c854cef-183">
    <g transform="translate(25.71,5)">
      <path d="M-5,-5 L5,-5 5,5 -5,5  z" class="primitive"/>
    </g>
    <g fill="#000000" stroke="#000000" id="img-6c854cef-184">
      <g transform="translate(25.71,5)">
        <g class="primitive">
          <text text-anchor="middle" dy="0.35em">↓</text>
        </g>
      </g>
    </g>
  </g>
  <g stroke="#808080" fill="#E9F4EB" id="img-6c854cef-185">
    <g transform="translate(25.71,15)">
      <path d="M-5,-5 L5,-5 5,5 -5,5  z" class="primitive"/>
    </g>
    <g fill="#000000" stroke="#000000" id="img-6c854cef-186">
      <g transform="translate(25.71,15)">
        <g class="primitive">
          <text text-anchor="middle" dy="0.35em">↓</text>
        </g>
      </g>
    </g>
  </g>
  <g stroke="#808080" fill="#E9F4EB" id="img-6c854cef-187">
    <g transform="translate(25.71,25)">
      <path d="M-5,-5 L5,-5 5,5 -5,5  z" class="primitive"/>
    </g>
    <g fill="#000000" stroke="#000000" id="img-6c854cef-188">
      <g transform="translate(25.71,25)">
        <g class="primitive">
          <text text-anchor="middle" dy="0.35em">↓</text>
        </g>
      </g>
    </g>
  </g>
  <g stroke="#808080" fill="#E9F4EB" id="img-6c854cef-189">
    <g transform="translate(25.71,35)">
      <path d="M-5,-5 L5,-5 5,5 -5,5  z" class="primitive"/>
    </g>
    <g fill="#000000" stroke="#000000" id="img-6c854cef-190">
      <g transform="translate(25.71,35)">
        <g class="primitive">
          <text text-anchor="middle" dy="0.35em">↓</text>
        </g>
      </g>
    </g>
  </g>
  <g stroke="#808080" fill="#E9F4EB" id="img-6c854cef-191">
    <g transform="translate(25.71,45)">
      <path d="M-5,-5 L5,-5 5,5 -5,5  z" class="primitive"/>
    </g>
    <g fill="#000000" stroke="#000000" id="img-6c854cef-192">
      <g transform="translate(25.71,45)">
        <g class="primitive">
          <text text-anchor="middle" dy="0.35em">↓</text>
        </g>
      </g>
    </g>
  </g>
  <g stroke="#808080" fill="#E9F4EB" id="img-6c854cef-193">
    <g transform="translate(25.71,55)">
      <path d="M-5,-5 L5,-5 5,5 -5,5  z" class="primitive"/>
    </g>
    <g fill="#000000" stroke="#000000" id="img-6c854cef-194">
      <g transform="translate(25.71,55)">
        <g class="primitive">
          <text text-anchor="middle" dy="0.35em">↓</text>
        </g>
      </g>
    </g>
  </g>
  <g stroke="#808080" fill="#E9F4EB" id="img-6c854cef-195">
    <g transform="translate(25.71,65)">
      <path d="M-5,-5 L5,-5 5,5 -5,5  z" class="primitive"/>
    </g>
    <g fill="#000000" stroke="#000000" id="img-6c854cef-196">
      <g transform="translate(25.71,65)">
        <g class="primitive">
          <text text-anchor="middle" dy="0.35em">↓</text>
        </g>
      </g>
    </g>
  </g>
  <g stroke="#808080" fill="#E9F4EB" id="img-6c854cef-197">
    <g transform="translate(25.71,75)">
      <path d="M-5,-5 L5,-5 5,5 -5,5  z" class="primitive"/>
    </g>
    <g fill="#000000" stroke="#000000" id="img-6c854cef-198">
      <g transform="translate(25.71,75)">
        <g class="primitive">
          <text text-anchor="middle" dy="0.35em">↓</text>
        </g>
      </g>
    </g>
  </g>
  <g stroke="#808080" fill="#E9F4EB" id="img-6c854cef-199">
    <g transform="translate(25.71,85)">
      <path d="M-5,-5 L5,-5 5,5 -5,5  z" class="primitive"/>
    </g>
    <g fill="#000000" stroke="#000000" id="img-6c854cef-200">
      <g transform="translate(25.71,85)">
        <g class="primitive">
          <text text-anchor="middle" dy="0.35em">→</text>
        </g>
      </g>
    </g>
  </g>
  <g stroke="#808080" fill="#E9F4EB" id="img-6c854cef-201">
    <g transform="translate(25.71,95)">
      <path d="M-5,-5 L5,-5 5,5 -5,5  z" class="primitive"/>
    </g>
    <g fill="#000000" stroke="#000000" id="img-6c854cef-202">
      <g transform="translate(25.71,95)">
        <g class="primitive">
          <text text-anchor="middle" dy="0.35em">→</text>
        </g>
      </g>
    </g>
  </g>
</g>
</svg>
